External Loads File
version=1
nRows=61
nColumns=13
Range=5.000000e-03-10 seconds
endheader
time 	forceRightX 	forceRightY 	forceRightZ 	pointRightX 	pointRightY 	pointRightZ 	forceLeftX 	forceLeftY 	forceLeftZ 	pointLeftX 	pointLeftY 	pointLeftZ 		
2.505000 125.614520 -101.804349 -0.000000 0.143378 0.254094 -0.111337 -281.004429 746.660332 -0.000000 0.393704 0.415300 -0.359851
2.510000 122.539579 -107.995544 -0.000000 0.140860 0.258942 -0.111322 -279.438563 750.113509 -0.000000 0.396320 0.410254 -0.359875
2.515000 119.099576 -113.456705 -0.000000 0.138549 0.263970 -0.111300 -277.392265 753.309602 -0.000000 0.398803 0.405211 -0.359920
2.520000 115.089456 -118.225616 -0.000000 0.136381 0.269045 -0.111233 -273.311193 756.805321 -0.000000 0.401311 0.399415 -0.359739
2.525000 111.207565 -121.562330 -0.000000 0.134486 0.274149 -0.111191 -271.312804 759.158153 -0.000000 0.403332 0.394257 -0.360077
2.530000 107.324595 -123.735320 -0.000000 0.132669 0.279433 -0.111208 -269.905800 761.087428 -0.000000 0.404981 0.389270 -0.360403
2.535000 103.215477 -125.144685 -0.000000 0.130988 0.284697 -0.111184 -267.098364 763.571583 -0.000000 0.406818 0.383564 -0.360452
2.540000 99.330406 -125.655902 -0.000000 0.129501 0.290068 -0.111141 -265.185976 766.124388 -0.000000 0.408729 0.378144 -0.360370
2.545000 95.543099 -125.631970 -0.000000 0.128178 0.295603 -0.111146 -263.279580 769.372816 -0.000000 0.410264 0.372630 -0.360386
2.550000 91.712474 -125.372285 -0.000000 0.127180 0.301184 -0.111164 -260.795359 773.757393 -0.000000 0.411665 0.366803 -0.360539
2.555000 87.787605 -125.005877 -0.000000 0.125775 0.306824 -0.111543 -257.873047 779.351393 -0.000000 0.413075 0.360997 -0.360304
2.560000 83.759051 -124.586012 -0.000000 0.125069 0.312644 -0.111634 -254.724998 786.113098 -0.000000 0.413892 0.355127 -0.360545
2.565000 79.627127 -124.146209 -0.000000 0.124498 0.318497 -0.111771 -251.252576 794.081299 -0.000000 0.414742 0.349273 -0.360528
2.570000 75.418020 -123.632505 -0.000000 0.124142 0.324511 -0.111896 -247.322816 803.302630 -0.000000 0.415362 0.343442 -0.360217
2.575000 71.188085 -122.889839 -0.000000 0.123812 0.330492 -0.112153 -242.971405 813.741637 -0.000000 0.415726 0.337450 -0.360282
2.580000 67.114846 -121.693847 -0.000000 0.123625 0.336415 -0.112187 -238.902640 825.135490 -0.000000 0.416085 0.331523 -0.359935
2.585000 63.136379 -120.015660 -0.000000 0.123992 0.342518 -0.112011 -233.985195 837.754306 -0.000000 0.415914 0.325540 -0.359914
2.590000 59.538248 -117.715542 -0.000000 0.124336 0.348424 -0.112053 -229.469006 851.196448 -0.000000 0.415610 0.319573 -0.359983
2.595000 56.260576 -114.940331 -0.000000 0.124945 0.354405 -0.112051 -224.558391 865.659829 -0.000000 0.415371 0.313586 -0.359669
2.600000 53.250782 -111.919427 -0.000000 0.125768 0.360431 -0.112114 -218.891496 881.202851 -0.000000 0.414819 0.307469 -0.359610
2.605000 50.509995 -108.875537 -0.000000 0.126885 0.366379 -0.111880 -213.039665 897.590802 -0.000000 0.414049 0.301339 -0.359871
2.610000 47.927589 -106.039504 -0.000000 0.127893 0.372297 -0.111987 -207.322449 914.566912 -0.000000 0.413233 0.295268 -0.359957
2.615000 45.140357 -103.694506 -0.000000 0.129365 0.378316 -0.112133 -200.342563 932.150194 -0.000000 0.412253 0.289146 -0.359264
2.620000 42.070930 -101.908996 -0.000000 0.130991 0.384075 -0.112168 -193.394696 949.642165 -0.000000 0.411167 0.283048 -0.358987
2.625000 38.366559 -100.770707 -0.000000 0.132783 0.389851 -0.112126 -185.177313 966.808560 -0.000000 0.409515 0.277068 -0.359091
2.630000 33.813201 -100.250028 -0.000000 0.134865 0.395802 -0.112176 -175.053425 983.199475 -0.000000 0.407881 0.271058 -0.359033
2.635000 28.454555 -100.224234 -0.000000 0.137165 0.401647 -0.112128 -164.253381 998.042818 -0.000000 0.406113 0.265215 -0.359006
2.640000 22.181761 -100.629554 -0.000000 0.139567 0.407492 -0.112224 -151.935133 1010.955862 -0.000000 0.404109 0.259367 -0.358925
2.645000 15.118682 -101.354051 -0.000000 0.142351 0.413093 -0.112005 -139.002140 1021.274377 -0.000000 0.401940 0.253706 -0.358923
2.650000 7.328199 -102.351256 -0.000000 0.145007 0.418676 -0.112153 -125.149224 1028.584300 -0.000000 0.399679 0.248013 -0.358846
2.655000 -1.056212 -103.606733 -0.000000 0.147881 0.424323 -0.112323 -110.042161 1032.523062 -0.000000 0.397162 0.242542 -0.358838
2.660000 -9.751261 -105.132562 -0.000000 0.150994 0.429779 -0.112300 -94.107485 1032.665749 -0.000000 0.394515 0.237119 -0.358829
2.665000 -18.526797 -106.958747 -0.000000 0.154430 0.435218 -0.112237 -76.918802 1028.712935 -0.000000 0.391743 0.231798 -0.358824
2.670000 -27.036923 -109.124504 -0.000000 0.157843 0.440624 -0.112242 -59.274480 1020.335473 -0.000000 0.388781 0.226610 -0.358840
2.675000 -34.991344 -111.628117 -0.000000 0.161372 0.445889 -0.112349 -41.532829 1007.349744 -0.000000 0.385688 0.221598 -0.358836
2.680000 -42.187542 -114.389420 -0.000000 0.165094 0.450984 -0.112354 -23.574384 989.690763 -0.000000 0.382471 0.216679 -0.358904
2.685000 -48.371112 -117.316079 -0.000000 0.168827 0.456127 -0.112375 -6.525076 967.380610 -0.000000 0.379130 0.212322 -0.358962
2.690000 -53.888480 -120.043622 -0.000000 0.173101 0.461157 -0.112270 12.489971 940.612551 -0.000000 0.375645 0.207405 -0.358972
2.695000 -58.162953 -122.590218 -0.000000 0.177051 0.465905 -0.112337 28.212860 909.806424 -0.000000 0.372030 0.203348 -0.359017
2.700000 -61.658567 -124.533679 -0.000000 0.180897 0.470666 -0.112849 43.293700 875.583369 -0.000000 0.368258 0.199183 -0.359061
2.705000 -64.491674 -125.628445 -0.000000 0.185141 0.475079 -0.112917 57.277518 838.764301 -0.000000 0.364413 0.195196 -0.358985
2.710000 -66.839796 -125.638828 -0.000000 0.189604 0.479286 -0.112672 70.078112 800.334049 -0.000000 0.360315 0.191464 -0.359038
2.715000 -68.747013 -124.431520 -0.000000 0.193970 0.483348 -0.112986 80.835026 761.490945 -0.000000 0.356151 0.187800 -0.359028
2.720000 -70.442973 -121.792190 -0.000000 0.198547 0.487462 -0.113040 90.027549 723.369203 -0.000000 0.351909 0.184405 -0.358976
2.725000 -72.029374 -117.582886 -0.000000 0.203244 0.491256 -0.113147 97.470084 687.097889 -0.000000 0.347463 0.181134 -0.358978
2.730000 -73.688830 -111.621947 -0.000000 0.208243 0.494909 -0.113253 103.581080 653.580671 -0.000000 0.342875 0.178035 -0.358931
2.735000 -75.410423 -103.861336 -0.000000 0.213181 0.498376 -0.113512 107.744932 623.664993 -0.000000 0.338192 0.175171 -0.358943
2.740000 -77.385216 -94.133157 -0.000000 0.218188 0.501508 -0.113630 110.580985 597.731587 -0.000000 0.333342 0.172434 -0.358895
2.745000 -79.740495 -82.314010 -0.000000 0.223275 0.504450 -0.113914 112.410336 575.868770 -0.000000 0.328385 0.169849 -0.358985
2.750000 -82.578870 -68.320479 -0.000000 0.228442 0.507200 -0.114116 113.517667 557.806284 -0.000000 0.323365 0.167434 -0.358949
2.755000 -85.989500 -52.107388 -0.000000 0.233683 0.509594 -0.114241 114.319436 542.879536 -0.000000 0.318229 0.165170 -0.358962
2.760000 -90.001104 -33.699080 -0.000000 0.239060 0.511691 -0.114547 115.274635 530.092290 -0.000000 0.313007 0.163146 -0.359001
2.765000 -94.522779 -13.277643 -0.000000 0.244373 0.513579 -0.114501 116.514863 518.297294 -0.000000 0.307683 0.161295 -0.359051
2.770000 -99.364933 8.875141 -0.000000 0.249668 0.515026 -0.114541 118.251876 506.247119 -0.000000 0.302253 0.159776 -0.359118
2.775000 -104.247930 32.369685 -0.000000 0.254953 0.516060 -0.114536 120.492260 492.793131 -0.000000 0.296818 0.158483 -0.359216
2.780000 -108.861648 56.853076 -0.000000 0.260213 0.516956 -0.114667 123.365468 476.912768 -0.000000 0.291258 0.157449 -0.359345
2.785000 -112.972445 81.956147 -0.000000 0.265610 0.517420 -0.114772 126.550316 457.922893 -0.000000 0.285795 0.156759 -0.359324
2.790000 -116.503983 107.382936 -0.000000 0.270760 0.517143 -0.114870 129.551617 435.481713 -0.000000 0.280244 0.156324 -0.359420
2.795000 -119.592912 132.969918 -0.000000 0.275470 0.516972 -0.114781 131.768256 409.615137 -0.000000 0.274745 0.156231 -0.359488
2.800000 -122.305210 158.973507 -0.000000 0.280075 0.516393 -0.114543 133.331161 380.432605 -0.000000 0.269312 0.156406 -0.359468
2.805000 -124.789319 185.813884 -0.000000 0.284654 0.515459 -0.114347 134.148556 348.342432 -0.000000 0.263892 0.156832 -0.359452
